<svg width="13" height="13" viewBox="0 0 13 13" fill="none" xmlns="http://www.w3.org/2000/svg">
<path fill-rule="evenodd" clip-rule="evenodd" d="M4.00242 6.5016C4.00242 6.69858 3.96362 6.89363 3.88824 7.07562C3.81286 7.25761 3.70237 7.42297 3.56308 7.56226C3.42379 7.70154 3.25843 7.81203 3.07644 7.88742C2.89445 7.9628 2.6994 8.0016 2.50242 8.0016C2.30544 8.0016 2.11038 7.9628 1.92839 7.88742C1.7464 7.81203 1.58105 7.70154 1.44176 7.56226C1.30247 7.42297 1.19198 7.25761 1.1166 7.07562C1.04122 6.89363 1.00242 6.69858 1.00242 6.5016C1.00242 6.10377 1.16045 5.72224 1.44176 5.44094C1.72306 5.15963 2.10459 5.0016 2.50242 5.0016C2.90024 5.0016 3.28177 5.15963 3.56308 5.44094C3.84438 5.72224 4.00242 6.10377 4.00242 6.5016ZM4.71542 7.6656C4.45527 8.16008 4.03696 8.55317 3.52727 8.78211C3.01758 9.01104 2.44588 9.06264 1.90344 8.92865C1.36099 8.79467 0.87907 8.48283 0.534589 8.0429C0.190109 7.60298 0.00292969 7.06034 0.00292969 6.5016C0.00292969 5.94285 0.190109 5.40021 0.534589 4.96029C0.87907 4.52036 1.36099 4.20852 1.90344 4.07454C2.44588 3.94055 3.01758 3.99215 3.52727 4.22108C4.03696 4.45002 4.45527 4.84311 4.71542 5.3376L8.10642 3.2176C8.00404 2.87384 7.97683 2.51209 8.02664 2.15689C8.07644 1.80169 8.20209 1.46136 8.39506 1.15902C8.58803 0.85668 8.84379 0.5994 9.14499 0.40465C9.44619 0.209901 9.78576 0.0822416 10.1407 0.0303405C10.4956 -0.0215605 10.8575 0.00351182 11.2018 0.103855C11.5462 0.204199 11.8649 0.377463 12.1364 0.611886C12.4078 0.846308 12.6257 1.1364 12.7751 1.46246C12.9245 1.78852 13.0021 2.14292 13.0024 2.5016C13.0022 3.02395 12.8383 3.53311 12.5339 3.95757C12.2295 4.38203 11.7997 4.70047 11.305 4.86816C10.8103 5.03586 10.2755 5.04438 9.77572 4.89255C9.27592 4.74071 8.83624 4.43613 8.51842 4.0216L4.98842 6.2286C5.00835 6.41005 5.00835 6.59314 4.98842 6.7746L8.51842 8.9806C8.89799 8.48557 9.44892 8.15033 10.063 8.04071C10.6771 7.93109 11.31 8.05502 11.8374 8.38814C12.3648 8.72127 12.7486 9.23953 12.9135 9.84116C13.0783 10.4428 13.0123 11.0843 12.7283 11.6397C12.4444 12.1952 11.9631 12.6244 11.3789 12.8431C10.7947 13.0618 10.1498 13.0542 9.57092 12.8218C8.99203 12.5894 8.52094 12.149 8.25015 11.587C7.97937 11.0251 7.92846 10.3822 8.10742 9.7846L4.71542 7.6656ZM10.5024 4.0016C10.6994 4.0016 10.8945 3.9628 11.0764 3.88742C11.2584 3.81203 11.4238 3.70154 11.5631 3.56226C11.7024 3.42297 11.8129 3.25761 11.8882 3.07562C11.9636 2.89363 12.0024 2.69858 12.0024 2.5016C12.0024 2.30461 11.9636 2.10956 11.8882 1.92757C11.8129 1.74558 11.7024 1.58022 11.5631 1.44094C11.4238 1.30165 11.2584 1.19116 11.0764 1.11578C10.8945 1.04039 10.6994 1.0016 10.5024 1.0016C10.1046 1.0016 9.72306 1.15963 9.44176 1.44094C9.16045 1.72224 9.00242 2.10377 9.00242 2.5016C9.00242 2.89942 9.16045 3.28095 9.44176 3.56226C9.72306 3.84356 10.1046 4.0016 10.5024 4.0016ZM12.0024 10.5016C12.0024 10.8994 11.8444 11.281 11.5631 11.5623C11.2818 11.8436 10.9002 12.0016 10.5024 12.0016C10.1046 12.0016 9.72306 11.8436 9.44176 11.5623C9.16045 11.281 9.00242 10.8994 9.00242 10.5016C9.00242 10.1038 9.16045 9.72224 9.44176 9.44094C9.72306 9.15963 10.1046 9.0016 10.5024 9.0016C10.9002 9.0016 11.2818 9.15963 11.5631 9.44094C11.8444 9.72224 12.0024 10.1038 12.0024 10.5016Z" fill="#6F6F6F"/>
</svg>
