<?xml version="1.0" encoding="UTF-8"?>
<svg id="Layer_1" data-name="Layer 1" xmlns="http://www.w3.org/2000/svg" viewBox="0 0 2065.45 400.85">
  <defs>
    <style>
      .cls-1 {
        fill: #fff;
      }
    </style>
  </defs>
  <g>
    <path class="cls-1" d="M220.02,269.19c-5.9,0-11.8-.13-17.7.04-4.1.12-6.57-1.59-7.64-5.5-.64-2.34-1.37-4.66-2.06-6.99-5.91-20.01-13.32-39.48-20.54-59.03-2.66-7.22-7.19-10.26-14.89-10.32-15.66-.12-31.23.98-46.82,2.18-5.21.4-8.52,3.06-9.88,7.83-4.77,16.7-9.69,33.36-12.64,50.51-.23,1.36-.29,2.77-.29,4.16.01,4.94,1.42,6.87,6.37,8.02,3.03.7,6.18.86,9.26,1.35,1.95.31,3.04,1.53,3.03,3.54,0,1.94-.93,3.48-2.84,3.8-2.38.39-4.84.5-7.25.43-5.21-.16-10.44-.27-15.62-.83-10.41-1.12-20.72-1.57-31.12.4-4.02.76-8.31.06-12.48,0-2.46-.03-3.83-1.4-4.15-3.74-.3-2.13,1.31-3.73,3.83-3.87,1.38-.07,2.78.05,4.17.09,5.4.18,9.26-2.51,12.24-6.69,1.21-1.69,2.25-3.52,3.17-5.38,22.01-44.55,43.86-89.17,63.21-134.96,2.57-6.07,4.66-12.34,6.96-18.53.48-1.3.97-2.62,1.31-3.96,2.5-9.9.58-12.48-9.63-13.02-1.04-.05-2.09.04-3.13-.06-2.92-.28-4.29-1.96-4.05-4.88.24-2.96,1.72-4.55,4.69-4.37,6.92.42,13.83.96,20.73,1.65,4.9.49,9.68.3,14.5-.75,3.03-.66,6.19-.93,9.3-1.01,5.66-.15,7.42,1.25,8.55,6.84,1.44,7.14,2.54,14.36,4.01,21.5,8.78,42.75,23.05,83.67,41.14,123.31,4.04,8.85,8.17,17.66,12.25,26.49,3.34,7.23,7.7,13.27,16.41,14.4.65.08,1.41.4,1.85.86.67.71,1.38,1.59,1.56,2.5.29,1.51-.65,3-1.98,3.26-3.03.58-6.16.95-9.25.92-4.86-.04-9.72-.48-14.57-.75,0,.2,0,.4,0,.6ZM150.74,173.67c0,.14.02.28.03.42,2.43,0,4.85,0,7.28,0,6.27.02,7.28-1.36,5.32-7.44-.42-1.32-1.04-2.57-1.53-3.86-5.11-13.62-10.11-27.28-13.89-41.35-.81-3-1.9-5.94-3.02-8.84-.87-2.26-1.87-4.49-3.04-6.6-.81-1.47-1.75-3.08-3.75-3.23-2.21-.16-2.73,1.76-3.6,3.16-.36.58-.53,1.28-.77,1.92-5.84,15.19-11.74,30.36-17.49,45.59-1.71,4.53-3.11,9.19-4.38,13.87-1.2,4.44.08,6.37,4.71,7.33,6.87,1.42,13.78,1.07,20.7.28,4.46-.51,8.95-.84,13.43-1.25Z"/>
    <path class="cls-1" d="M695.11,132.4c9.44.28,18.75-.36,27.74-3.65,1.61-.59,3.33-.93,5.03-1.22,1.84-.31,3.24,1.48,2.62,3.34-.65,1.98-1.37,3.94-2.21,5.84-9.67,21.95-19.1,44.02-29.13,65.81-17.3,37.6-33.8,75.53-49.3,113.9-2.24,5.53-5.11,10.64-8.44,15.54-.98,1.43-1.9,2.92-2.68,4.47-1.48,2.93-.74,5.2,2.29,6.95,3.34,1.92,6.92,3.18,10.77,3.69,4.14.55,8.26,1.17,12.38,1.83,2.05.33,4.12.68,6.09,1.31,1.6.52,3.3,1.25,3.43,3.4.09,1.55-2.01,2.92-4.78,2.73-10.4-.71-20.84.43-31.26-1.06-4.73-.68-9.69.24-14.55.51-5.2.28-10.4.8-15.6.91-2.95.06-4.36-1.55-4.7-4.46-.08-.69-.1-1.39-.12-2.08-.16-7.49,1.61-9.48,8.8-9.82,1.39-.06,2.79-.04,4.17.1,7.3.74,11.88-3.04,14.88-9.14,2.3-4.67,4.47-9.43,6.39-14.27,5-12.6,9.88-25.24,14.72-37.91,1.94-5.08,1.81-9.98-.72-15.09-13.15-26.5-23.76-54.11-35.04-81.42-3.86-9.34-8.62-18.22-13.09-27.26-3.74-7.55-9.34-11.94-17.99-11.86-2.31.02-4.2-.58-4.28-3.32-.1-3.44,1.46-5.68,4.41-6.01,3.45-.38,7.01-.94,10.4-.5,9.86,1.26,18.43-2.2,26.95-6.35,3.35-1.63,6.5-6.07,9.94-4.54,4.09,1.81,3.04,7.39,3.81,11.36,1.11,5.78,1.12,11.78,2.23,17.57,3.62,18.86,10.6,36.7,17.34,54.58,3.43,9.1,7.43,17.99,11.35,26.89,1.25,2.85,4.25,2.98,5.55.31,1.83-3.74,3.61-7.55,4.85-11.51,4.69-14.92,9.23-29.88,13.69-44.87,2.69-9.04,3.22-18.48,4.56-27.76.57-3.94-1.68-6.8-5.59-7.48-2.72-.47-5.55-.29-8.31-.56-2.89-.28-4.33-1.83-4.59-4.67-.22-2.35,1.06-4.14,3.4-4.19,4.86-.12,9.73-.04,14.6-.04Z"/>
    <path class="cls-1" d="M856.85,164.94c-.67,22.46-2.87,43.1-9.53,63.05-.33.99-.74,1.95-1.08,2.94-1.58,4.62-3.4,9.2-.06,13.89,3.77,5.3,8.43,9.2,15.08,10.14,2.06.29,4.18.19,6.21.58,2.56.5,4.27,2.85,4.09,5.27-.18,2.36-1.58,3.58-3.82,4.28-8.01,2.49-16.13,3.98-24.58,3.79-4.34-.1-7.19-2.02-9.26-5.59-2.34-4.03-3.49-8.28-2.82-12.97.56-3.87-.17-7.62-1.38-11.29-.38-1.15-2.71-1.84-3.54-.99-1.92,1.98-3.77,4.03-5.58,6.12-7.53,8.74-15.79,16.71-25.83,22.51-11.26,6.5-23.21,6.84-35.06,1.95-8.89-3.66-14.7-10.3-16.01-20.23-.09-.69-.26-1.37-.4-2.05-4.11-20.78,6.7-32.14,20.05-37.7,3.51-1.46,7.14-2.69,10.79-3.77,13.98-4.12,27.99-8.14,41.98-12.19,1.66-.48,3.38-.84,4.99-1.46,4.38-1.68,5.75-3.61,4.8-7.9-3.61-16.16-12.89-29.29-32.32-32.3-.69-.11-1.37-.3-2.05-.34-10.96-.66-14.38,1.88-16.27,12.63-1.14,6.5-1.79,13.08-2.73,19.61-.24,1.69-.63,3.38-1.16,5-.17.54-1,1.28-1.47,1.24-.92-.08-2.17-.4-2.63-1.07-.96-1.41-1.57-3.08-2.2-4.68-1.37-3.46-3.85-5.6-7.34-6.86-4.24-1.53-8.39-3.31-12.55-5.04-2.07-.86-3.46-2.3-3.34-4.73.09-1.92,1.1-3.26,2.82-4,17.92-7.72,33.33-20.07,51.25-27.79,4.14-1.78,8.19-3.81,12.4-5.4,12.31-4.64,24.08-1.93,35.09,3.9,7.9,4.19,11.37,11.97,12.67,20.56.62,4.11.61,8.31.79,10.91ZM831.33,212.64c-.09-.83-.15-1.53-.25-2.21-1.02-7.51-2.71-9.26-10.12-8.35-9.29,1.15-18.53,2.82-27.71,4.69-2.97.6-5.86,2.23-8.47,3.9-4.9,3.14-7.91,7.76-8.96,13.52-1.86,10.21,6.53,20.94,16.11,19.85,15.24-1.74,27.77-8.5,36.28-21.74,1.93-3,3.1-6.2,3.13-9.64Z"/>
    <path class="cls-1" d="M457.86,203.16c-.61-11.8-1.15-23.6-1.89-35.4-.17-2.75-.86-5.5-1.56-8.18-2.01-7.6-4.71-9.36-12.72-8.53-4.47.46-6.63-1.4-6.41-5.56.08-1.54.89-2.7,2.35-3.02,1.33-.3,2.79-.4,4.13-.2,11.89,1.77,22.61-1.79,33.18-6.73,4.19-1.96,7.55-6.38,13.05-4.97,1.66,4.55-.16,8.92-.78,13.32-1.88,13.42-4.13,26.79-5.97,40.22-1.65,12.02-3.18,24.07-4.34,36.15-.66,6.91-.61,13.86-2.86,20.56-1.38,4.1-.77,8.29.34,12.35,1.17,4.27,4.31,6.2,8.71,5.48,2.38-.39,4.7-1.2,7.09-1.56,1.94-.29,3.35.82,4.03,2.59.72,1.87-.18,3.44-1.53,4.6-1.03.89-2.31,1.59-3.6,2.06-7.96,2.93-16.23,3.77-24.63,3.07-3.99-.33-5.45-1.85-6.36-5.71-.56-2.39-.63-4.77-.35-7.24.27-2.39.26-4.88-.06-7.26-.83-6.21-3.04-7.23-8.17-3.78-2.88,1.93-5.66,4.07-8.24,6.38-7.62,6.83-16.51,11.48-25.8,15.51-5.47,2.38-11.18,3.71-17.11,4.21-16.71,1.42-29.46-10.73-29.35-27.52.06-9.03.79-18.09.6-27.02-.21-10.08,0-20.02.82-30.05.6-7.31-1.47-14.5-2.54-21.71-.3-2-1.36-3.94-2.32-5.78-1.96-3.77-5.09-5.64-9.41-5.03-2.05.29-4.06.96-6.11,1.17-2.22.23-4.49-1.94-4.89-4.5-.29-1.87.22-3.71,2.12-4.22,3-.81,6.12-1.61,9.2-1.62,13.24-.05,25.21-4.4,36.83-10.18,1.86-.93,3.73-1.91,5.7-2.53.94-.3,2.04.43,2.3,1.56.74,3.15-.13,6.23-.71,9.28-1.03,5.46-2.61,10.83-3.41,16.32-1.54,10.66-3.13,21.35-3.9,32.08-.91,12.66.88,24.95,7.58,36.17,3.18,5.34,7.42,8.88,13.38,10.86,13.22,4.39,25.33,1.98,36.84-5.18,2.85-1.77,4.11-4.53,5.03-7.63,1.62-5.44,1.49-11,1.52-16.56.01-2.09,0-4.17,0-6.26.08,0,.17,0,.25,0Z"/>
    <path class="cls-1" d="M539.88,268.19c-8.04.28-16.37.57-24.71.85-1.73.06-3.47.19-5.2.07-1.91-.13-3.24-1.2-3.55-3.16-.36-2.22.11-4.06,2.39-5.18,2.3-1.14,4.68-1.02,7.13-.97,9.84.19,12.12-1.93,12.44-11.95.5-15.97.81-31.94,1.28-47.9.16-5.55.34-11.12.91-16.65.83-8.05-1.09-15.94-1.04-23.94.03-4.86-.31-9.73-.29-14.59.02-5.92-.27-11.8-1.08-17.68-.57-4.12-.77-8.3-.91-12.47-.57-17.05-2.86-33.94-4.55-50.89-.34-3.4-1.55-6.78-2.78-10-1.07-2.8-3.4-4.47-6.57-4.1-3.78.44-7.53,1.2-11.31,1.68-3.28.42-6.55-3.99-5.28-7.06.56-1.35,1.72-2.28,3.2-2.32,4.51-.12,9.08-.56,13.53-.06,11.67,1.32,22.84-.31,33.7-4.58.97-.38,1.92-.84,2.91-1.12,7.18-2.08,8.8-.75,8.35,6.59-1.09,18.02-3.1,35.96-3.32,54.07-.23,18.67-2.09,37.31-2.98,55.98-.56,11.79.01,23.67-1.14,35.4-1.3,13.18-1.01,26.38-1.88,39.56-.5,7.62-.3,15.29-.19,22.93.09,6.04,1.99,8.04,8.1,8.56,3.8.32,7.64.16,11.47.17,2.18,0,4.15.61,5.74,2.08,1.02.95,1.72,2.18,1.4,3.7-.38,1.79-1.19,3.54-3.15,3.64-4.5.24-9.02.26-13.53.15-6.25-.16-12.5-.52-19.07-.81Z"/>
    <path class="cls-1" d="M271.96,194.52c0-10.08.02-20.16-.01-30.25,0-2.08-.07-4.18-.29-6.24-.96-8.75-1.5-9.18-10.34-8.66-1.39.08-2.77.25-4.16.28-4.95.09-7.01-2.26-6.2-7.04.32-1.88,1.31-3.36,3.24-3.55,3.1-.31,6.23-.25,9.33-.45,3.75-.24,6.11-2.36,5.48-6.02-1.41-8.25-.02-16.67-2.04-24.9-1.45-5.95-.35-8.02,5.31-10.89,8.38-4.25,16.72-8.46,24.22-14.23,2.68-2.06,5.55-.28,5.63,3.21.04,1.72-.17,3.46-.36,5.18-.18,1.73-.78,3.46-.67,5.16.82,12.17-.58,24.29-.59,36.43,0,1.03.14,2.09.42,3.08.41,1.45,1.53,2.5,2.99,2.41,2.75-.16,5.53-.46,8.21-1.06,6.09-1.38,12.12-3.04,18.2-4.47,2.02-.47,4.12-.71,6.19-.77.93-.03,2.24.38,2.75,1.06,2.34,3.08,1.91,6.5.7,9.89-.79,2.21-2.46,3.21-4.78,3.31-5.2.22-10.37.86-15.62.33-4.83-.49-9.73-.62-14.51.69-2.1.58-3.83,1.57-4.34,3.95-1.02,4.73-3.08,9.32-2.27,14.31,1.13,6.97-.11,13.85-.8,20.73-.49,4.85-.94,9.66-.86,14.55.06,3.81.06,7.74-.77,11.42-1.92,8.56-1.48,17.3-2.22,25.92-.66,7.73,1.59,15.27,9.65,19.28,5.78,2.87,11.47,2.51,16.96-.6,2.41-1.36,4.49-3.27,6.83-4.77,1.6-1.03,3.32-.95,4.65.6,1.22,1.42,1.7,3.11.66,4.78-.71,1.15-1.63,2.31-2.73,3.06-7.24,4.91-15.06,8.6-23.62,10.61-4.85,1.14-9.73.78-14.5-.15-9.15-1.78-16.44-10.37-17.4-21.03-.96-10.71-1.37-21.47-1.74-32.22-.26-7.64-.05-15.29-.05-22.94-.18,0-.36,0-.55,0Z"/>
  </g>
  <g>
    <path class="cls-1" d="M1770.2,362.78c-.12.15-.32.22-.51.28-1.28.41-2.6.69-3.94.84-1.17.12-2.49.09-3.33-.73-.89-.87-.89-2.28-.83-3.52.44-10.29.55-20.59.32-30.89-.12-5.15-.32-10.3-.6-15.44-.23-4.07.01-8.91-1.23-12.84-.04-.13-.12-.83-.35-.83,1.58-.23,3.01-.37,4.41-.64,8.7-1.71,14.85,1.38,19.63,8.97,4.7,7.47,10.34,14.34,15.66,21.41,2.6,3.45,5.41,6.67,8.11,10.02,2.28,2.83,4.41,6.16,7.93,7.57.2.08.42.16.63.12.64-.1.77-.95.75-1.6-.22-6.7.29-13.39.72-20.07.21-3.34.41-6.68.49-10.03.07-3.03.48-6.54-.53-9.44-.8-2.31-2.45-4.33-5.09-6.4h16.01c-3.62,6.8-2.53,14.37-3.49,21.67-.94,7.21-1.54,14.46-2.19,21.71-.51,5.69-.72,11.41-1.38,17.09-.15,1.26-1.49,3.13-2.55,3.34-1.16.23-3.01-.82-3.92-1.87-9.55-11-18.93-22.14-28.44-33.18-3.39-3.94-6.89-7.79-10.57-11.45-.92-.91-2.71-1.36-4.08-1.31-2.09.07-2.1,2.15-2.09,3.55.11,11.44.38,22.89.57,34.33.05,2.92.02,5.84.03,8.76,0,.19,0,.38-.1.54-.01.02-.02.03-.03.05Z"/>
    <path class="cls-1" d="M1850.99,363.04c1.5-14.6,2.97-28,2.84-41.53-.08-7.98-1.62-15.4-6.96-22.75,3.39,0,8.41-.07,14.5-.49,8.33-.58,8.52-1.1,14-1.32,7.72-.31,15.23-.54,23,3.27,4.62,2.26,7.23,4.92,7.81,5.53,0,0,4.3,4.23,6.11,10.62,6.4,22.67-8.16,45.46-29.41,48.37-10.51,1.44-20.64,1.09-31.89-1.69ZM1861.3,329.18c0,3.62-.17,7.26.04,10.87.24,4.12.71,8.24,1.3,12.32.38,2.59,1.48,4.85,3.89,6.37,9.21,5.82,25,3.1,31-5.42,8.72-12.37,8.79-25-.04-37.48-2.08-2.93-4.47-5.76-7.18-8.1-5.71-4.93-12.46-7.18-20.1-6.61-4.17.31-6.44,2.36-7.58,6.4-2.02,7.18-.7,14.44-1.34,21.65Z"/>
    <path class="cls-1" d="M2022.62,362.42c-5.45.51-7.84.74-9.33-.25-1.7-1.12-2.17-2.9-2.8-4.77-3.62-10.72-8.91-20.2-8.91-20.2h-19.47s-7.72,9.96-8.19,20.81c-.08,1.8-.02,4.3-1.67,5.66-.99.82-2.63.85-5.47.62-1.37-.11-2.67-1.12-4.01-1.72,5.87-14,11.67-28.3,17.39-42.89,2.61-6.67,5.17-13.3,7.68-19.9,11.99-1.44,13.31-3.15,16.54,11.77,3.1,14.29,8.33,27.87,14.68,41.05,1.48,3.08,4.51,5.8,3.56,9.82ZM1983.83,330.5c0,.17.03.51.22.86,1.88,3.46,15.58,0,15.58,0h0s-5.84-19.47-5.84-19.47h0s-3.44,6.43-9.96,18.61Z"/>
    <path class="cls-1" d="M1944.94,299.45c-4.12,13.13-5.02,48.7-1.78,63.84-4.36,1.86-8.61,2.04-12.47-.03,3.77-21.64,6.32-42.69-1.89-63.81h16.14Z"/>
    <path class="cls-1" d="M1725.31,299.62c6.14-.17,11.19-1.48,15.68-.08-6.95,21.16-4.75,42.39-2.35,63.76-3.87,1.97-7.77,1.67-12.29-.37,1.29-6.82,3.19-13.71,3.74-20.69.53-6.64-.09-13.41-.66-20.09-.62-7.17-1.16-14.4-4.12-22.53Z"/>
  </g>
  <g>
    <path class="cls-1" d="M1586.35,269.37c-6.86,0-13.71.08-20.57-.04-2.54-.04-5.13-.31-7.57-.94-1.01-.26-2.1-1.62-2.45-2.71-.54-1.66-.08-3.53,1.44-4.6,3.59-2.54,7.59-3.92,12.04-3.19,18.18,2.98,30.74-7.23,42.9-18.31.67-.61.94-2.81.47-3.24-.78-.7-2.39-.92-3.53-.7-2.08.42-4.01,1.51-6.08,1.98-18.33,4.17-33.9-1.03-46.44-14.7-12.69-13.83-15.98-29.88-9.58-47.71,4.52-12.57,12.98-22.06,23.56-29.81,17.63-12.92,37.84-17.49,59.27-17.92,3.85-.08,7.71.15,11.56.16,6.5,0,12.77.57,18.45,4.36,6.4,4.26,12.96,3.45,19.4-.24,2.6-1.49,5.2-2.98,7.88-4.32,3.67-1.84,5.74-1.18,7.02,2.38.71,1.97,1.17,4.1,1.32,6.19.21,2.92-1.29,5.11-4.2,5.51-3.8.53-7.67.47-11.5.81-3.51.31-5.24,2.42-4.88,6.08.25,2.55.93,5.05,1.28,7.59.47,3.38.96,6.76,1.18,10.15.8,12.31-3.23,22.49-12.59,30.91-6.35,5.71-11.94,12.3-17.58,18.75-9.05,10.34-18.47,20.28-28.85,29.3-1.94,1.68-3.84,3.43-5.52,5.36-.74.86-1.36,2.33-1.18,3.37.36,2,2.26,2.23,4,2.25,3,.02,6-.03,9-.01,14.17.06,28.18,1.08,41.78,5.59,5.76,1.91,11.24,4.29,15.94,8.09,9.95,8.05,13.85,18.35,10.23,30.86-3.94,13.64-11.64,24.84-23.5,32.76-17.4,11.61-36.55,18.74-57.49,20.2-14.55,1.02-29.12.8-43.49-2.47-8.05-1.83-15.48-4.96-22.22-9.68-4.69-3.28-5.28-6.3-2.26-10.82,1.19-1.78,2.61-3.4,3.94-5.08,7.3-9.28,12.86-19.26,12.45-31.58-.1-2.9,1.37-4.81,3.8-6.15,1.94-1.07,3.92-1.81,5.98-.37,2.13,1.48,2.06,3.54,1.25,5.68-.3.8-.73,1.55-1.15,2.29-4.79,8.49-2.46,16.25,4.02,22.13,15.18,13.77,32.01,24.36,53.77,23.52,23.12-.89,36.97-22.36,28.04-43.6-3.97-9.46-10.36-16.65-19.36-21.54-10.79-5.86-22.3-8.62-34.59-7.95-5.14.28-10.27.57-15.4.85v.54ZM1645.04,189.6c-.84-5.97-1.7-11.89-2.49-17.81-1.28-9.51-6.42-16.53-13.92-22.15-6.67-5-14.25-7.9-22.33-9.11-10.68-1.61-19.66,2-25.33,11.34-8.18,13.47-9.11,27.51-.59,41.24,6.99,11.26,16.95,19.04,29.58,23.41,6.33,2.19,12.74,2.14,18.92.43,7.88-2.19,13.72-6.87,14.56-15.89.36-3.82,1.06-7.61,1.61-11.44Z"/>
    <path class="cls-1" d="M1033.11,213.51c.74,10.53,1.4,21.66,2.38,32.75.3,3.37,1.08,6.81,2.31,9.95,1.13,2.87,3.42,4.89,7.06,4.19,2.1-.4,4.22-.82,6.34-.9,3.87-.15,6.43,2.05,6.02,4.9-.35,2.45-2.63,4.09-5.92,3.4-12.32-2.57-24.79-1.47-37.2-1.68-8.56-.14-17.15-.49-25.6,1.66-2.91.74-5.98.8-8.86-.38-2.13-.87-3.62-2.48-3.23-4.91.28-1.78,1.59-3.04,3.5-3.21,3.41-.29,6.87-.22,10.25-.7,6.87-.97,10.18-3.73,11.08-10.52,2.85-21.65,6.38-43.25,6.61-65.17.11-11.15.08-22.3.22-33.45.11-9.47-.77-18.83-2.65-28.09-1.37-6.76-1.66-13.59-1.8-20.45-.07-3.4-.11-6.89-.88-10.18-2.21-9.42-5.24-11.76-15.02-12.59-2.53-.21-5.11-.36-7.54-1.03-.9-.25-1.81-1.82-2.03-2.92-.33-1.71.26-3.42,2.02-4.31,3.27-1.64,6.75-.9,10.1-.57,14.11,1.37,28.24,1.94,42.4,1.43,6.84-.25,13.66-1.13,20.5-1.44,4.52-.2,7.12,1.64,6.61,4.08-.63,3.03-3.01,3.97-5.6,4.37-2.53.4-5.15.26-7.68.68-6.33,1.04-8.97,3.55-9.55,10.2-1.34,15.36-2.35,30.74-3.42,46.12-.36,5.12-.39,10.26-.76,15.38-.29,3.88-.24,7.7.73,11.49.77,3,2.85,4.08,5.78,2.68,2.7-1.29,5.34-2.73,7.89-4.31,29.41-18.18,55.78-39.86,77.37-67.07,1.33-1.68,2.74-3.31,3.89-5.11,2.75-4.3.77-8.7-4.52-9.34-5.52-.66-11.12-.72-16.68-1.01-2.14-.11-4.32.13-6.4-.26-1.67-.32-2.98-1.56-3.28-3.47-.33-2.12,1.16-3.07,2.67-3.87.72-.38,1.66-.49,2.49-.48,6.85.09,13.71,0,20.54.41,12.81.76,25.58,1.76,38.41-.07,3.98-.57,9.34-2.65,11.35,2.6,1.59,4.15-2.6,6.82-5.56,9.27-3.97,3.28-8.02,6.45-12.03,9.67-23.1,18.49-46.19,36.98-69.29,55.47-1.34,1.07-2.68,2.14-3.94,3.29-2.18,2.01-2.59,4.43-.96,6.89,1.65,2.5,3.49,4.88,5.39,7.2,12.26,14.96,25.65,28.82,40.34,41.42,5.53,4.74,11.04,9.55,16.12,14.76,13.49,13.83,27.31,27.27,42.34,39.43,1.64,1.33,3.09,2.94,4.42,4.59.34.42-.01,1.5-.23,2.22-.08.28-.7.57-1.06.55-1.69-.07-3.37-.25-5.06-.39-10.28-.88-20.59-1.42-30.75.7-4.33.9-7.54-.17-10.47-3.06-7.63-7.53-15.4-14.93-22.83-22.65-17.25-17.92-34.26-36.07-51.53-53.97-5.04-5.23-10.6-9.95-15.95-14.88-2.54-2.34-5.32-2.48-8.23-.71-6.6,4.03-10.97,9.29-10.67,17.64.27,7.7.06,15.42.06,23.74Z"/>
    <path class="cls-1" d="M1790.81,236.64c-3.18-.09-4.45,2.41-6.24,4.15-6.44,6.28-12.67,12.78-19.39,18.75-9.52,8.46-20.87,11.33-33.43,9.52-15.18-2.19-24.36-12.45-25.38-27.57-1.2-17.68,8.75-32.02,25.8-36.4,15.31-3.94,30.47-8.49,45.65-12.94,12.48-3.66,13.65-6.27,8.82-18.36-6.18-15.49-19.81-24.51-35.98-23.83-7.5.32-9.93,2.11-11.37,9.48-1.23,6.28-3.14,12.44-3.11,18.97.01,2.49-.91,5.02-1.62,7.47-.18.61-1.13,1.33-1.78,1.39-.67.06-1.89-.48-2.04-.99-2.11-7.5-7.89-10.53-14.59-13.11-4-1.54-10.55-1.66-10.06-8,.39-5.08,6.37-4.86,9.88-6.96,5.88-3.52,11.92-6.76,17.71-10.41,10.17-6.41,20.9-11.76,31.79-16.75,11.43-5.24,23.24-5.06,34.99-.76,9.56,3.5,15.71,9.91,17.58,20.24,1.53,8.46,3.16,16.82.91,25.43-.75,2.87-.82,5.94-.99,8.92-.82,14.19-3.2,28.05-8.29,41.39-.76,1.99-1.38,4.07-1.77,6.17-1.52,7.99,2.34,15.46,9.73,19.05,3.52,1.72,7.27,2.54,11.17,2.64,2.45.06,4.3,1.15,4.52,3.58.25,2.83-1.26,4.73-4.15,5.56-7.04,2.02-14.19,3.23-21.53,2.99-8.7-.29-12.03-3.32-13.37-12.32-.51-3.38-.63-6.82-1.01-10.23-.29-2.55-.73-5.08-2.42-7.08ZM1754.67,242.03c15.45-1.04,27.94-8.13,36.4-21.75,1.5-2.41,2.19-5.6,2.38-8.49.63-9.19-2.81-12.17-11.94-10.97-2.95.39-5.98.4-8.87,1.02-7.05,1.53-14.25,2.75-21.02,5.14-9.14,3.23-13.3,10.35-12.89,19.85.4,9.31,6.19,15.01,15.94,15.2Z"/>
    <path class="cls-1" d="M1309.65,166.74c-2.36,19.48-2.25,39.35-9.36,58.1-1.06,2.79-1.96,5.7-2.49,8.63-1.39,7.67,2.41,14.7,9.74,17.54,3.56,1.38,7.43,2,11.2,2.75,2.83.56,4.86,1.88,4.95,4.86.08,2.5-1.99,3.73-4.03,4.34-7.41,2.21-14.88,3.81-22.74,3.14-7.19-.61-10.92-3.41-12.25-10.53-.54-2.91-.28-5.96-.48-8.94-.17-2.55-.29-5.13-.81-7.62-.24-1.12-1.23-2.54-2.22-2.9-.9-.32-2.6.29-3.33,1.07-2.62,2.81-4.89,5.96-7.46,8.81-5.76,6.39-12.26,11.96-19.35,16.83-10.2,7.01-21.53,8.51-33.16,5.49-11.25-2.92-18.44-10.41-20.47-22.22-1.98-11.5-.71-22.13,7.85-31.06,4.61-4.81,10.2-7.74,16.43-9.59,14.35-4.25,28.72-8.4,43.09-12.58.82-.24,1.68-.34,2.5-.57,12.03-3.43,13.27-5.64,9.72-17.21-5.12-16.66-21.07-26.94-38.73-25.13-4.4.45-7.28,2.49-8.17,6.8-1.64,7.96-3.1,15.97-4.61,23.96-.32,1.68-.43,3.41-.86,5.06-.18.69-.88,1.52-1.52,1.72-.6.19-1.96-.22-2.08-.62-2.62-9.04-10.06-12.19-17.89-14.92-1.61-.56-3.22-1.17-4.77-1.88-1.6-.73-2.85-1.88-3.04-3.76-.2-1.99,1.09-3.45,2.57-4.07,17.88-7.39,32.88-20.09,50.73-27.51,2.37-.98,4.56-2.37,6.89-3.44,14.76-6.81,25.14-6.6,39.2.71,6.04,3.14,9.84,8.17,11.96,14.48,2.21,6.55,3.23,13.31,3,20.27ZM1244.42,241.87c15.42-.87,28-7.96,36.97-21.27,2.74-4.07,3.18-8.81,2.53-13.61-.71-5.18-3.71-7.54-8.83-6.82-5.5.77-11.03,1.49-16.45,2.68-5.83,1.27-11.88,1.69-17.35,4.44-9.61,4.83-14.15,15.01-10.94,24.7,2.12,6.39,6.66,9.73,14.08,9.89Z"/>
    <path class="cls-1" d="M1903.64,257.94c2.99-.79,5.91-.85,8.71.74,2.12,1.2,2.97,3.03,2.51,5.35-.47,2.38-2.2,3.5-4.49,3.86-.42.06-.86.08-1.27,0-14.9-2.91-29.76-2.29-44.66.15-3.28.54-6.85.81-9.96-1.26-1.56-1.04-2.48-2.53-2.12-4.3.35-1.69,1.43-3.17,3.45-3.23,2.56-.08,5.13.13,7.69-.02,6.07-.35,8.16-2.22,9.44-8.4.43-2.09.68-4.23.79-6.36,1.42-27.06-.22-53.88-6.75-80.27-.61-2.49-1.27-4.97-2.05-7.41-2.17-6.75-5.34-11.11-14.11-9.67-1.26.21-2.59.35-3.83.16-1.78-.27-3.07-1.25-3.39-3.25-.4-2.51.78-4.26,2.9-5.07,1.53-.59,3.35-.53,5.05-.58,4.28-.12,8.57-.04,12.84-.2,6.9-.27,13.56-1.66,19.87-4.6,2.32-1.08,4.66-2.2,7.11-2.89,6.11-1.72,8.86.58,8.39,6.93-.47,6.4-1.1,12.8-1.64,19.19-.11,1.28-.38,2.61-.13,3.82.23,1.13.81,2.48,1.69,3.13,1.22.9,2.21-.23,3.14-1.16,8.2-8.14,16.4-16.27,24.68-24.33,5.48-5.33,12.09-7.91,19.77-7.66,4.59.15,6.72,2.13,5.69,6.3-2.26,9.12-4.92,18.15-7.45,27.21-.96,3.45-3.54,4.53-6.84,4.55-5.98.04-11.97.36-17.94.13-3.97-.15-7.65.7-11.3,1.93-7.06,2.36-11.54,7.11-13.03,14.5-.25,1.26-.37,2.54-.59,3.81-3.15,18.18-3,36.63-4.4,54.95-.13,1.69.12,3.42.34,5.12,1.05,8.2,3.08,9.69,11.91,8.85Z"/>
    <path class="cls-1" d="M1389.46,145.15c-.43,4.16-1.18,10.97-1.79,17.78-.05.61.68,1.58,1.28,1.86.65.3,1.76.24,2.35-.15,1.04-.69,1.97-1.65,2.7-2.67,7.04-9.93,17.02-16.87,25.71-25.1,2.71-2.57,6.37-4.48,9.93-5.69,4.03-1.37,8.98-1.88,12.33.91,3.34,2.79,1.29,7.24.18,10.79-2.3,7.35-4.89,14.62-7.55,21.85-.96,2.61-3.07,3.96-6,3.93-5.56-.05-11.12.08-16.68-.07-3.93-.1-7.63.68-11.36,1.8-8.16,2.44-13.17,7.67-14.88,16.03-.34,1.68-1,3.35-1,5.03-.04,15.43-3.43,30.68-2.43,46.18.27,4.26-.19,8.56-.22,12.84-.04,5.97,2.7,8.51,8.81,8.05,2.55-.19,5.07-1,7.6-1,1.61,0,3.37.7,4.78,1.56,1.54.94,1.94,2.66,1.6,4.51-.34,1.87-1.32,3.24-3.2,3.47-1.67.21-3.4.04-5.09-.11-13.28-1.16-26.51-1.67-39.73.89-4.16.8-8.55,1.07-12.6-1-1.62-.83-2.76-2.05-2.6-3.99.16-1.92,1.35-3.2,3.2-3.4,2.54-.27,5.12-.13,7.68-.26,7.38-.37,9.77-2.51,11.01-9.82.21-1.27.31-2.55.38-3.84,1.58-27.57-.83-54.81-7.06-81.71-.39-1.67-.89-3.31-1.45-4.93-3.64-10.62-4.57-11.28-16.59-11.53-2.3-.05-4.25-.43-4.7-3.16-.47-2.89,1.05-5.39,3.81-5.6,3.84-.29,7.71-.42,11.56-.26,8.75.35,17.09-.95,24.81-5.3,1.12-.63,2.27-1.24,3.48-1.67,9.96-3.58,12.71-2.02,11.98,8.54-.06.86-.09,1.71-.27,5.23Z"/>
    <path class="cls-1" d="M1510.15,144.32c-1.7,17.01-2.6,34.16-5.35,51-2.41,14.79-2.76,29.69-4.57,44.49-.16,1.27-.2,2.56-.28,3.84-.71,11.65,1.62,16.41,14.08,15.23,2.11-.2,4.27.13,6.4.27,1.93.13,3.31,1.29,3.6,3.05.38,2.31-.79,4.26-2.98,5.09-1.54.58-3.4.98-4.97.69-13.6-2.56-27.16-2.84-40.78-.07-2.89.59-6.01.59-8.74-1.04-1.51-.9-2.69-2.26-2.65-4.11.04-1.79.84-3.28,2.88-3.6.84-.13,1.69-.23,2.54-.31,9.86-.96,12.4-4.75,13.26-14.02.24-2.55.49-5.13.39-7.69-1-26.48-2.52-52.92-5.94-79.22-.22-1.68-.75-3.34-1.29-4.95-1.05-3.12-3.24-4.97-6.56-5.28-1.27-.12-2.56.05-3.84-.01-5.97-.29-8.49-1.53-7.83-3.82,1.12-3.86,4.51-3.71,7.33-3.59,13.68.6,26.22-2.95,38.02-9.65,1.1-.63,2.32-1.1,3.55-1.44,2.09-.58,3.28.85,3.88,2.43,1.61,4.24-.22,8.45-.16,12.71Z"/>
    <path class="cls-1" d="M2010.84,266.3c-7.72-1.04-16.2-.82-24.65,1.39-3.31.87-6.82,1.01-9.91-1.13-1.55-1.07-2.01-2.63-1.81-4.45.16-1.48,1.17-2.41,2.37-2.67,4.98-1.03,10.74-.79,13.45-6.1,3.14-6.15,5.25-13.13,3.74-19.82-4.22-18.58-2.37-37.5-4.08-56.2-.74-8.13-2.56-16-4.34-23.9-1-4.45-4.11-6.12-8.59-5.92-2.51.11-5.1-.11-7.53-.68-.78-.18-1.43-1.91-1.68-3.03-.13-.6.57-1.78,1.18-2.05,1.51-.68,3.16-1.19,4.8-1.41,4.67-.62,9.35-1.31,14.04-1.53,7.89-.37,15.05-3,22.02-6.41,1.91-.94,3.83-1.91,5.84-2.57,2.11-.69,3.51.88,3.59,2.54.24,5.12.39,10.29-.04,15.39-1.19,14.07-2.6,28.12-4.09,42.16-1.44,13.59-2.9,27.19-4.74,40.73-.99,7.29-.68,14.53-.4,21.79.13,3.5,2.37,5.6,5.62,6,4.66.57,9.39.51,14.07.92,1.89.16,3.03,1.58,3.03,3.47,0,1.92-1.25,3.37-3.08,3.42-5.98.17-11.96.07-18.81.07Z"/>
    <path class="cls-1" d="M1982.95,119.66c5.27-12.57,9.85-22.54,15.74-31.87,1.12-1.78,2.5-3.51,4.1-4.85,2.99-2.51,6.39-4.64,10.48-3.04,4.51,1.77,8.11,4.7,9.08,9.84,1.5,7.94-.63,13.18-7.51,17.34-2.87,1.74-6.06,3.3-9.31,4.01-7.13,1.55-13.7,4.43-22.57,8.57Z"/>
    <path class="cls-1" d="M1473.29,116.1c3.64-4.29,5.21-9.68,7.79-14.53,2.99-5.63,5.92-11.36,9.58-16.55,4.19-5.95,9.95-6.95,15.66-3.68,6.31,3.62,9.13,11.35,6.17,17.56-2.28,4.78-5.89,8.53-10.95,10.18-8.45,2.75-17.03,5.08-25.59,7.48-.66.19-1.57-.5-2.37-.78l-.28.32Z"/>
    <path class="cls-1" d="M1473.57,115.78c.27,1.69-1.21-.23.13.84-.12-.18-.24-.36-.39-.52-.03.01.26-.31.26-.31Z"/>
  </g>
</svg>