<svg width="26" height="22" viewBox="0 0 26 22" fill="none" xmlns="http://www.w3.org/2000/svg">
<path d="M1.55727 7.87529C1.25966 7.87529 0.987261 7.63765 1.00046 7.32824C1.08086 5.51412 1.30646 4.33294 1.93647 3.39882C2.29583 2.8665 2.74649 2.39921 3.26849 2.01765C4.6665 1 6.64053 1 10.591 1H15.4078C19.3583 1 21.3323 1 22.7327 2.01765C23.2499 2.39412 23.7011 2.86118 24.0635 3.39882C24.6935 4.33294 24.9191 5.51412 24.9995 7.32824C25.0127 7.63765 24.7403 7.87529 24.4415 7.87529C22.7783 7.87529 21.4295 9.27412 21.4295 11C21.4295 12.7259 22.7783 14.1247 24.4415 14.1247C24.7403 14.1247 25.0127 14.3624 24.9995 14.6729C24.9191 16.4859 24.6935 17.6671 24.0635 18.6024C23.7041 19.1343 23.2534 19.6011 22.7315 19.9824C21.3323 21 19.3583 21 15.4078 21H10.5922C6.64173 21 4.6677 21 3.26729 19.9824C2.74572 19.6007 2.29547 19.1334 1.93647 18.6012C1.30646 17.6671 1.08086 16.4859 1.00046 14.6718C0.987261 14.3624 1.25966 14.1247 1.55727 14.1247C3.22049 14.1247 4.5693 12.7259 4.5693 11C4.5693 9.27412 3.22049 7.87529 1.55727 7.87529Z" stroke="#C0C0C0" stroke-width="1.5" stroke-linecap="round" stroke-linejoin="round"/>
</svg>
