<!DOCTYPE svg PUBLIC "-//W3C//DTD SVG 1.1//EN" "http://www.w3.org/Graphics/SVG/1.1/DTD/svg11.dtd">

<!-- Uploaded to: SVG Repo, www.svgrepo.com, Transformed by: SVG Repo Mixer Tools -->
<svg width="32px" height="32px" viewBox="-1.6 -1.6 19.20 19.20" xmlns="http://www.w3.org/2000/svg" fill="#ffffff" class="bi bi-filter-left" stroke="#ffffff">

<g id="SVGRepo_bgCarrier" stroke-width="0">

<rect x="-1.6" y="-1.6" width="19.20" height="19.20" rx="9.6" fill="#6d001d" strokewidth="0"/>

</g>

<g id="SVGRepo_tracerCarrier" stroke-linecap="round" stroke-linejoin="round"/>

<g id="SVGRepo_iconCarrier"> <path d="M2 10.5a.5.5 0 0 1 .5-.5h3a.5.5 0 0 1 0 1h-3a.5.5 0 0 1-.5-.5zm0-3a.5.5 0 0 1 .5-.5h7a.5.5 0 0 1 0 1h-7a.5.5 0 0 1-.5-.5zm0-3a.5.5 0 0 1 .5-.5h11a.5.5 0 0 1 0 1h-11a.5.5 0 0 1-.5-.5z"/> </g>

</svg>