<svg width="335" height="71" viewBox="0 0 335 71" fill="none" xmlns="http://www.w3.org/2000/svg">
<path d="M1 59.4265L10.1871 51.1003C20.4014 41.843 36.1817 42.6009 45.4619 52.7943L51.5 59.4265L54.6636 63.1599C58.0484 67.1542 63.0188 69.4573 68.2543 69.4573V69.4573C76.7764 69.4573 84.9915 66.2759 91.2908 60.5361L93.0767 58.9087C99.8754 52.7139 109.908 51.6467 117.857 56.2727L124.999 60.4285C131.053 63.9514 138.308 64.7729 144.997 62.6929L146.808 62.1295C152.389 60.3939 158.424 60.8633 163.669 63.4412V63.4412C171.21 67.1469 180.176 66.4149 187.016 61.5352L203.688 49.6408C211.518 44.0544 221.859 43.4558 230.281 48.1014L248.501 58.1508C260.034 64.5117 274.523 60.8347 281.627 49.7444L297.628 24.765C299.842 21.3082 302.873 18.4499 306.454 16.4425L334 1" stroke="#8FF4CA" stroke-width="2" stroke-dasharray="6 6"/>
</svg>
