<svg width="8" height="8" viewBox="0 0 8 8" fill="none" xmlns="http://www.w3.org/2000/svg">
<path fill-rule="evenodd" clip-rule="evenodd" d="M0 4C0 4.13308 0.0526814 4.26071 0.146455 4.35482C0.240228 4.44892 0.367412 4.50179 0.500027 4.50179H6.29368L4.14689 6.65613C4.05857 6.75125 4.01048 6.87707 4.01277 7.00706C4.01506 7.13706 4.06753 7.26109 4.15915 7.35303C4.25076 7.44497 4.37436 7.49763 4.5039 7.49992C4.63344 7.50222 4.75881 7.45396 4.8536 7.36533L7.85377 4.3546C7.9474 4.26051 8 4.13297 8 4C8 3.86703 7.9474 3.73949 7.85377 3.6454L4.8536 0.634675C4.75881 0.546039 4.63344 0.497785 4.5039 0.500079C4.37436 0.502372 4.25076 0.555035 4.15915 0.646971C4.06753 0.738907 4.01506 0.86294 4.01277 0.992937C4.01048 1.12293 4.05857 1.24875 4.14689 1.34387L6.29368 3.49821L0.500027 3.49821C0.367412 3.49821 0.240228 3.55108 0.146455 3.64518C0.0526814 3.73929 0 3.86692 0 4Z" fill="#60A487"/>
</svg>
