<svg width="40" height="40" viewBox="0 0 40 40" fill="none" xmlns="http://www.w3.org/2000/svg">
<rect y="-0.00488281" width="40" height="40" rx="20" fill="#F6F8FB"/>
<g clip-path="url(#clip0_1678_4555)">
<path d="M20 11.9951C19.8011 11.9951 19.6103 12.0741 19.4697 12.2148C19.329 12.3554 19.25 12.5462 19.25 12.7451C19.25 12.944 19.329 13.1348 19.4697 13.2754C19.6103 13.4161 19.8011 13.4951 20 13.4951C21.7239 13.4951 23.3772 14.1799 24.5962 15.3989C25.8152 16.6179 26.5 18.2712 26.5 19.9951C26.5 21.719 25.8152 23.3723 24.5962 24.5913C23.3772 25.8103 21.7239 26.4951 20 26.4951C19.8011 26.4951 19.6103 26.5741 19.4697 26.7148C19.329 26.8554 19.25 27.0462 19.25 27.2451C19.25 27.444 19.329 27.6348 19.4697 27.7754C19.6103 27.9161 19.8011 27.9951 20 27.9951C22.1217 27.9951 24.1566 27.1523 25.6569 25.652C27.1571 24.1517 28 22.1168 28 19.9951C28 17.8734 27.1571 15.8386 25.6569 14.3383C24.1566 12.838 22.1217 11.9951 20 11.9951Z" fill="#788BA5"/>
<path d="M12.75 19.245C12.5511 19.245 12.3603 19.324 12.2197 19.4646C12.079 19.6053 12 19.7961 12 19.995C12 20.1939 12.079 20.3846 12.2197 20.5253C12.3603 20.6659 12.5511 20.745 12.75 20.745H19.44L17.72 22.465C17.6463 22.5336 17.5872 22.6164 17.5462 22.7084C17.5052 22.8004 17.4832 22.8997 17.4814 23.0004C17.4796 23.1011 17.4982 23.2012 17.5359 23.2946C17.5736 23.3879 17.6297 23.4728 17.701 23.544C17.7722 23.6152 17.857 23.6714 17.9504 23.7091C18.0438 23.7468 18.1438 23.7653 18.2445 23.7636C18.3452 23.7618 18.4445 23.7397 18.5365 23.6987C18.6285 23.6578 18.7113 23.5986 18.78 23.525L21.78 20.525C21.9205 20.3843 21.9993 20.1937 21.9993 19.995C21.9993 19.7962 21.9205 19.6056 21.78 19.465L18.78 16.465C18.6378 16.3325 18.4498 16.2604 18.2555 16.2638C18.0612 16.2672 17.8758 16.3459 17.7384 16.4833C17.601 16.6208 17.5223 16.8061 17.5188 17.0004C17.5154 17.1947 17.5875 17.3828 17.72 17.525L19.44 19.245H12.75Z" fill="#788BA5"/>
</g>
<defs>
<clipPath id="clip0_1678_4555">
<rect width="20" height="20" fill="white" transform="translate(10 9.99512)"/>
</clipPath>
</defs>
</svg>
