<svg width="19" height="21" viewBox="0 0 19 21" fill="none" xmlns="http://www.w3.org/2000/svg">
<path fill-rule="evenodd" clip-rule="evenodd" d="M12.2211 10.6387C12.064 10.1941 11.7728 9.80923 11.3878 9.53701C11.0028 9.2648 10.5429 9.11866 10.0714 9.11874V8.54883H8.93156V9.11874C8.32696 9.11874 7.74713 9.35892 7.31961 9.78643C6.89209 10.2139 6.65192 10.7938 6.65192 11.3984C6.65192 12.003 6.89209 12.5828 7.31961 13.0103C7.74713 13.4379 8.32696 13.678 8.93156 13.678V15.9577C8.43574 15.9577 8.01344 15.6414 7.85614 15.198C7.8328 15.1254 7.79515 15.0583 7.74542 15.0006C7.69569 14.9428 7.63489 14.8957 7.5666 14.8618C7.49832 14.828 7.42395 14.8082 7.34788 14.8036C7.27182 14.7991 7.1956 14.8098 7.12375 14.8352C7.0519 14.8605 6.98588 14.9001 6.92957 14.9514C6.87327 15.0028 6.82784 15.0649 6.79596 15.1341C6.76408 15.2033 6.74641 15.2782 6.74399 15.3544C6.74157 15.4306 6.75444 15.5064 6.78186 15.5775C6.93899 16.0221 7.23011 16.407 7.61511 16.6792C8.00011 16.9514 8.46005 17.0976 8.93156 17.0975V17.6674H10.0714V17.0975C10.676 17.0975 11.2558 16.8573 11.6833 16.4298C12.1109 16.0023 12.351 15.4225 12.351 14.8179C12.351 14.2133 12.1109 13.6334 11.6833 13.2059C11.2558 12.7784 10.676 12.5382 10.0714 12.5382V10.2586C10.3071 10.2585 10.5371 10.3315 10.7295 10.4676C10.922 10.6036 11.0676 10.796 11.1462 11.0183C11.1966 11.1608 11.3015 11.2775 11.4378 11.3427C11.5054 11.375 11.5786 11.3936 11.6533 11.3976C11.7281 11.4016 11.8029 11.3908 11.8734 11.3659C11.944 11.341 12.009 11.3024 12.0647 11.2524C12.1203 11.2023 12.1656 11.1418 12.1979 11.0743C12.2302 11.0068 12.2488 10.9335 12.2528 10.8588C12.2568 10.7841 12.246 10.7093 12.2211 10.6387ZM8.93156 10.2586C8.62926 10.2586 8.33934 10.3787 8.12559 10.5924C7.91183 10.8062 7.79174 11.0961 7.79174 11.3984C7.79174 11.7007 7.91183 11.9906 8.12559 12.2044C8.33934 12.4181 8.62926 12.5382 8.93156 12.5382V10.2586ZM10.0714 15.9577C10.3737 15.9577 10.6636 15.8376 10.8774 15.6238C11.0911 15.4101 11.2112 15.1202 11.2112 14.8179C11.2112 14.5156 11.0911 14.2256 10.8774 14.0119C10.6636 13.7981 10.3737 13.678 10.0714 13.678V15.9577Z" fill="#D1D1D1"/>
<path fill-rule="evenodd" clip-rule="evenodd" d="M3.31965 1.49374C4.71821 0.809274 7.01268 0 9.52371 0C11.9823 0 14.2164 0.775649 15.6075 1.45099L15.6862 1.48918C16.1056 1.69663 16.4441 1.89268 16.6824 2.05168L14.5771 5.1292C19.4305 10.0909 23.1794 20.5151 9.52371 20.5151C-4.13194 20.5151 -0.483937 10.2801 4.4116 5.1292L2.32003 2.05168C2.48131 1.94625 2.68591 1.82372 2.92983 1.69378C3.05065 1.62881 3.18059 1.56175 3.31965 1.49374ZM13.2241 5.08874L14.9094 2.62501C13.3421 2.73785 11.4774 3.10602 9.68214 3.62578C8.39984 3.99622 6.97506 3.9398 5.65572 3.69645C5.32323 3.63489 4.99305 3.56151 4.66578 3.47646L5.76001 5.0876C8.1052 5.92252 10.8784 5.92252 13.2241 5.08874ZM5.10177 6.05816C7.84589 7.11819 11.144 7.11819 13.8881 6.05702C15.0332 7.26473 15.9914 8.63686 16.7308 10.1279C17.5013 11.6997 17.9208 13.271 17.8524 14.6251C17.7863 15.9319 17.2722 17.0483 16.0982 17.8781C14.8746 18.7427 12.8167 19.3753 9.52314 19.3753C6.2262 19.3753 4.15856 18.7535 2.92356 17.8986C1.741 17.0797 1.22181 15.978 1.14829 14.6889C1.07135 13.3496 1.48169 11.7863 2.24936 10.2037C2.98169 8.69457 4.00355 7.24186 5.10177 6.05816ZM4.44637 2.23177C4.9023 2.36741 5.37874 2.48538 5.86203 2.57486C7.08734 2.80054 8.31607 2.8336 9.3647 2.52984C10.5867 2.1737 11.8296 1.89372 13.0862 1.6915C12.0376 1.37577 10.8111 1.13982 9.52314 1.13982C7.55979 1.13982 5.72867 1.68751 4.44637 2.23177Z" fill="#D1D1D1"/>
</svg>
