<svg width="21" height="27" viewBox="0 0 21 27" fill="none" xmlns="http://www.w3.org/2000/svg">
<path fill-rule="evenodd" clip-rule="evenodd" d="M11.8195 1.81646C11.8195 1.46731 11.6805 1.13246 11.4331 0.885581C11.1858 0.638698 10.8503 0.5 10.5004 0.5C10.1506 0.5 9.81509 0.638698 9.56773 0.885581C9.32036 1.13246 9.18139 1.46731 9.18139 1.81646V2.8038H8.44669C7.03273 2.8037 5.67188 3.34143 4.64119 4.3075C3.61049 5.27357 2.98743 6.59537 2.89885 8.0038L2.60734 12.6562C2.49465 14.4297 1.89803 16.1387 0.882052 17.5981C0.671842 17.8997 0.5434 18.2504 0.509218 18.6162C0.475036 18.9819 0.536276 19.3503 0.686984 19.6854C0.837691 20.0206 1.07274 20.3111 1.36926 20.5288C1.66578 20.7464 2.01369 20.8837 2.37915 20.9274L6.87309 21.4646V22.8797C6.87309 23.8399 7.25525 24.7607 7.93551 25.4397C8.61577 26.1186 9.53839 26.5 10.5004 26.5C11.4625 26.5 12.3851 26.1186 13.0653 25.4397C13.7456 24.7607 14.1278 23.8399 14.1278 22.8797V21.4646L18.6217 20.9261C18.9869 20.8823 19.3346 20.7449 19.631 20.5274C19.9273 20.3098 20.1622 20.0195 20.3129 19.6845C20.4636 19.3496 20.5249 18.9814 20.4909 18.6158C20.4569 18.2503 20.3287 17.8997 20.1188 17.5981C19.1028 16.1387 18.5062 14.4297 18.3935 12.6562L18.102 8.00511C18.0137 6.59645 17.3908 5.27433 16.3601 4.30798C15.3294 3.34163 13.9683 2.80373 12.5542 2.8038H11.8195V1.81646ZM8.44669 4.77848C7.536 4.77837 6.6595 5.12467 5.99564 5.74688C5.33178 6.36908 4.93048 7.22041 4.87344 8.12754L4.58325 12.7799C4.44763 14.9135 3.72966 16.9695 2.5071 18.725C2.49189 18.7468 2.48259 18.7722 2.4801 18.7986C2.47762 18.8251 2.48204 18.8517 2.49292 18.876C2.50381 18.9002 2.5208 18.9213 2.54223 18.937C2.56367 18.9528 2.58883 18.9627 2.61526 18.9659L7.54447 19.557C9.50851 19.7913 11.4923 19.7913 13.4564 19.557L18.3856 18.9659C18.412 18.9627 18.4372 18.9528 18.4586 18.937C18.48 18.9213 18.497 18.9002 18.5079 18.876C18.5188 18.8517 18.5232 18.8251 18.5207 18.7986C18.5183 18.7722 18.509 18.7468 18.4937 18.725C17.2717 16.9693 16.5541 14.9134 16.4189 12.7799L16.1274 8.12754C16.0704 7.22041 15.6691 6.36908 15.0052 5.74688C14.3413 5.12467 13.4648 4.77837 12.5542 4.77848H8.44669ZM10.5004 24.5253C9.59029 24.5253 8.85163 23.7881 8.85163 22.8797V21.8924H12.1492V22.8797C12.1492 23.7881 11.4106 24.5253 10.5004 24.5253Z" fill="#5F3DC3"/>
</svg>
