<svg width="10" height="12" viewBox="0 0 9 10" fill="none" xmlns="http://www.w3.org/2000/svg">
<path d="M8.77315 4.37514L6.96406 5.81352L7.51523 7.96461C7.54564 8.08138 7.53781 8.20384 7.49272 8.31651C7.44764 8.42918 7.36733 8.52702 7.26193 8.59766C7.15653 8.66829 7.03078 8.70856 6.90056 8.71338C6.77033 8.71819 6.64148 8.68734 6.53028 8.62471L4.50008 7.47342L2.46868 8.62471C2.35749 8.68698 2.22879 8.71754 2.09879 8.71255C1.96879 8.70755 1.84331 8.66723 1.73813 8.59665C1.63295 8.52608 1.55279 8.42841 1.50773 8.31593C1.46268 8.20346 1.45474 8.08122 1.48493 7.96461L2.03811 5.81352L0.229026 4.37514C0.130651 4.2968 0.059504 4.19349 0.024471 4.07811C-0.010562 3.96274 -0.00792865 3.84041 0.0320421 3.7264C0.0720128 3.61239 0.147549 3.51176 0.249219 3.43708C0.350888 3.36239 0.474183 3.31696 0.603708 3.30645L2.97562 3.13013L3.89062 1.0898C3.94015 0.978605 4.02444 0.883491 4.13278 0.81655C4.24113 0.74961 4.36863 0.713867 4.49908 0.713867C4.62952 0.713867 4.75702 0.74961 4.86537 0.81655C4.97371 0.883491 5.05801 0.978605 5.10753 1.0898L6.02213 3.13013L8.39404 3.30645C8.52382 3.31657 8.64748 3.36175 8.74952 3.43633C8.85156 3.51091 8.92744 3.61158 8.96766 3.72573C9.00788 3.83987 9.01065 3.96241 8.97562 4.078C8.94059 4.19359 8.86932 4.29708 8.77073 4.37551L8.77315 4.37514Z" fill="#FFFFF0"/>
</svg>
