<svg xmlns="http://www.w3.org/2000/svg" xmlns:xlink="http://www.w3.org/1999/xlink" viewBox="0,0,256,256" width="24px" height="24px" fill-rule="nonzero"><g fill="none" fill-rule="nonzero" stroke="none" stroke-width="1" stroke-linecap="butt" stroke-linejoin="miter" stroke-miterlimit="10" stroke-dasharray="" stroke-dashoffset="0" font-family="none" font-weight="none" font-size="none" text-anchor="none" style="mix-blend-mode: normal"><g transform="scale(0.5,0.5)"><path d="M504.1,256c0,-137 -111.1,-248.1 -248.1,-248.1c-137,0 -248.1,111.1 -248.1,248.1c0,137 111.1,248.1 248.1,248.1c137,0 248.1,-111.1 248.1,-248.1z" fill="#d11a2a"></path><path d="M285,256l72.5,-84.2c7.9,-9.2 6.9,-23 -2.3,-31c-9.2,-7.9 -23,-6.9 -30.9,2.3l-68.3,79.3l-68.2,-79.2c-7.9,-9.2 -21.8,-10.2 -31,-2.3c-9.2,7.9 -10.2,21.8 -2.3,31l72.5,84.1l-72.5,84.2c-7.9,9.2 -6.9,23 2.3,31c4.1,3.6 9.2,5.3 14.3,5.3c6.2,0 12.3,-2.6 16.6,-7.6l68.2,-79.2l68.2,79.2c4.3,5 10.5,7.6 16.6,7.6c5.1,0 10.2,-1.7 14.3,-5.3c9.2,-7.9 10.2,-21.8 2.3,-31z" fill="#ffffff"></path></g></g></svg>