<svg width="12" height="12" viewBox="0 0 12 12" fill="none" xmlns="http://www.w3.org/2000/svg">
<path d="M11.7014 5.06764L9.28932 7.04541L10.0242 10.0032C10.0648 10.1637 10.0543 10.3321 9.9942 10.487C9.93409 10.6419 9.82701 10.7765 9.68648 10.8736C9.54595 10.9707 9.37828 11.0261 9.20465 11.0327C9.03102 11.0393 8.85921 10.9969 8.71095 10.9108L6.00401 9.32777L3.29547 10.9108C3.14722 10.9964 2.97563 11.0384 2.8023 11.0316C2.62897 11.0247 2.46165 10.9693 2.32141 10.8722C2.18117 10.7752 2.07429 10.6409 2.01421 10.4862C1.95414 10.3316 1.94357 10.1635 1.98382 10.0032L2.72139 7.04541L0.309274 5.06764C0.178107 4.95992 0.0832449 4.81787 0.0365342 4.65922C-0.0101764 4.50058 -0.00666529 4.33238 0.046629 4.17562C0.0999233 4.01886 0.200639 3.88049 0.336198 3.7778C0.471756 3.67511 0.636151 3.61264 0.80885 3.59819L3.9714 3.35575L5.1914 0.550296C5.25743 0.397401 5.36983 0.266618 5.51428 0.174575C5.65874 0.082532 5.82874 0.0333862 6.00267 0.0333862C6.1766 0.0333862 6.3466 0.082532 6.49106 0.174575C6.63552 0.266618 6.74791 0.397401 6.81395 0.550296L8.03341 3.35575L11.196 3.59819C11.369 3.6121 11.5339 3.67422 11.6699 3.77677C11.806 3.87932 11.9072 4.01774 11.9608 4.17469C12.0144 4.33164 12.0181 4.50014 11.9714 4.65907C11.9247 4.81801 11.8297 4.96031 11.6982 5.06815L11.7014 5.06764Z" fill="#60A487"/>
</svg>
