<svg width="16" height="17" viewBox="0 0 16 17" fill="none" xmlns="http://www.w3.org/2000/svg">
<path d="M6.61875 1.4082C5.47116 1.4082 4.34933 1.7485 3.39514 2.38607C2.44095 3.02364 1.69725 3.92985 1.25809 4.99009C0.81892 6.05033 0.704015 7.21699 0.927899 8.34253C1.15178 9.46807 1.7044 10.502 2.51588 11.3134C3.32735 12.1249 4.36123 12.6775 5.48677 12.9014C6.61232 13.1253 7.77898 13.0104 8.83922 12.5712C9.89946 12.1321 10.8057 11.3883 11.4432 10.4342C12.0808 9.47997 12.4211 8.35814 12.4211 7.21055C12.421 5.6717 11.8097 4.19591 10.7215 3.10778C9.63339 2.01965 8.1576 1.4083 6.61875 1.4082Z" stroke="#6F6F6F" stroke-width="1.5" stroke-miterlimit="10"/>
<path d="M10.9478 11.5395L15 15.5918" stroke="#6F6F6F" stroke-width="1.5" stroke-miterlimit="10" stroke-linecap="round"/>
</svg>
