<svg width="19" height="20" viewBox="0 0 19 20" fill="none" xmlns="http://www.w3.org/2000/svg">
<path d="M1.11753 0.000121189C0.855974 4.52088e-05 0.602671 0.0799142 0.401735 0.225818C0.2008 0.371722 0.0649643 0.574416 0.0178852 0.798603L3.8147e-06 0.97388V18.5015C-0.000511169 18.7449 0.103552 18.9796 0.291697 19.1594C0.479843 19.3392 0.738436 19.4511 1.01656 19.4731C1.29468 19.4951 1.57216 19.4255 1.79438 19.2782C2.01659 19.1308 2.16743 18.9163 2.21718 18.6768L2.23506 18.5015V0.97388C2.23506 0.715623 2.11732 0.467944 1.90775 0.285329C1.69817 0.102714 1.41392 0.000121189 1.11753 0.000121189ZM18.6717 0.284459C18.4865 0.123447 18.2424 0.0241495 17.9818 0.00386457C17.7212 -0.0164204 17.4607 0.0435939 17.2457 0.173451L17.0893 0.284459L7.0315 9.04829C6.84671 9.20965 6.73276 9.42239 6.70948 9.64944C6.6862 9.87648 6.75507 10.1035 6.9041 10.2908L7.0315 10.4271L17.0893 19.191C17.2864 19.3635 17.5505 19.4654 17.8296 19.4767C18.1086 19.4879 18.3824 19.4077 18.597 19.2518C18.8115 19.0959 18.9513 18.8756 18.9887 18.6343C19.0261 18.3931 18.9585 18.1484 18.7991 17.9484L18.6717 17.8121L9.40289 9.73771L18.6717 1.6633C18.7758 1.57285 18.8583 1.46539 18.9147 1.34709C18.971 1.22879 19 1.10196 19 0.97388C19 0.845797 18.971 0.718972 18.9147 0.60067C18.8583 0.482368 18.7758 0.374912 18.6717 0.284459Z" fill="#D0D0D0"/>
</svg>
