<svg width="19" height="20" viewBox="0 0 19 20" fill="none" xmlns="http://www.w3.org/2000/svg">
<path d="M17.8825 0.000121189C18.144 4.52088e-05 18.3973 0.0799142 18.5983 0.225818C18.7992 0.371722 18.935 0.574416 18.9821 0.798603L19 0.97388V18.5015C19.0005 18.7449 18.8964 18.9796 18.7083 19.1594C18.5202 19.3392 18.2616 19.4511 17.9834 19.4731C17.7053 19.4951 17.4278 19.4255 17.2056 19.2782C16.9834 19.1308 16.8326 18.9163 16.7828 18.6768L16.7649 18.5015V0.97388C16.7649 0.715623 16.8827 0.467944 17.0923 0.285329C17.3018 0.102714 17.5861 0.000121189 17.8825 0.000121189ZM0.328316 0.284459C0.513503 0.123447 0.757649 0.0241495 1.01822 0.00386457C1.27879 -0.0164204 1.53927 0.0435939 1.75428 0.173451L1.91074 0.284459L11.9685 9.04829C12.1533 9.20965 12.2672 9.42239 12.2905 9.64944C12.3138 9.87648 12.2449 10.1035 12.0959 10.2908L11.9685 10.4271L1.91074 19.191C1.71363 19.3635 1.44951 19.4654 1.17043 19.4767C0.891355 19.4879 0.61756 19.4077 0.403005 19.2518C0.188451 19.0959 0.0486999 18.8756 0.0112938 18.6343C-0.0261122 18.3931 0.0415403 18.1484 0.200918 17.9484L0.328316 17.8121L9.59711 9.73771L0.328316 1.6633C0.224244 1.57285 0.141674 1.46539 0.0853364 1.34709C0.0289985 1.22879 0 1.10196 0 0.97388C0 0.845797 0.0289985 0.718972 0.0853364 0.60067C0.141674 0.482368 0.224244 0.374912 0.328316 0.284459Z" fill="#60A487"/>
</svg>
