<svg width="21" height="21" viewBox="0 0 21 21" fill="none" xmlns="http://www.w3.org/2000/svg">
<path d="M16.5789 16.5789C17.1652 16.5789 17.7275 16.8118 18.142 17.2264C18.5566 17.6409 18.7895 18.2032 18.7895 18.7895C18.7895 19.3757 18.5566 19.938 18.142 20.3526C17.7275 20.7671 17.1652 21 16.5789 21C15.9927 21 15.4304 20.7671 15.0159 20.3526C14.6013 19.938 14.3684 19.3757 14.3684 18.7895C14.3684 18.2032 14.6013 17.6409 15.0159 17.2264C15.4304 16.8118 15.9927 16.5789 16.5789 16.5789ZM16.5789 17.6842C16.2858 17.6842 16.0047 17.8007 15.7974 18.0079C15.5901 18.2152 15.4737 18.4963 15.4737 18.7895C15.4737 19.0826 15.5901 19.3637 15.7974 19.571C16.0047 19.7783 16.2858 19.8947 16.5789 19.8947C16.8721 19.8947 17.1532 19.7783 17.3605 19.571C17.5678 19.3637 17.6842 19.0826 17.6842 18.7895C17.6842 18.4963 17.5678 18.2152 17.3605 18.0079C17.1532 17.8007 16.8721 17.6842 16.5789 17.6842ZM6.63158 16.5789C7.21785 16.5789 7.7801 16.8118 8.19466 17.2264C8.60921 17.6409 8.8421 18.2032 8.8421 18.7895C8.8421 19.3757 8.60921 19.938 8.19466 20.3526C7.7801 20.7671 7.21785 21 6.63158 21C6.04531 21 5.48305 20.7671 5.0685 20.3526C4.65395 19.938 4.42105 19.3757 4.42105 18.7895C4.42105 18.2032 4.65395 17.6409 5.0685 17.2264C5.48305 16.8118 6.04531 16.5789 6.63158 16.5789ZM6.63158 17.6842C6.33844 17.6842 6.05732 17.8007 5.85004 18.0079C5.64276 18.2152 5.52632 18.4963 5.52632 18.7895C5.52632 19.0826 5.64276 19.3637 5.85004 19.571C6.05732 19.7783 6.33844 19.8947 6.63158 19.8947C6.92471 19.8947 7.20584 19.7783 7.41312 19.571C7.62039 19.3637 7.73684 19.0826 7.73684 18.7895C7.73684 18.4963 7.62039 18.2152 7.41312 18.0079C7.20584 17.8007 6.92471 17.6842 6.63158 17.6842ZM18.7895 3.31579H3.61421L6.43263 9.94737H15.4737C15.8384 9.94737 16.1589 9.77053 16.3579 9.50526L19.6737 5.08421C19.8174 4.89632 19.8947 4.66421 19.8947 4.42105C19.8947 4.12792 19.7783 3.84679 19.571 3.63951C19.3637 3.43224 19.0826 3.31579 18.7895 3.31579ZM15.4737 11.0526H6.48789L5.63684 12.7768L5.52632 13.2632C5.52632 13.5563 5.64276 13.8374 5.85004 14.0447C6.05732 14.252 6.33844 14.3684 6.63158 14.3684H18.7895V15.4737H6.63158C6.04531 15.4737 5.48305 15.2408 5.0685 14.8262C4.65395 14.4117 4.42105 13.8494 4.42105 13.2632C4.42072 12.8881 4.51581 12.5192 4.69737 12.1911L5.49316 10.5663L1.48105 1.10526H0V0H2.21053L3.15 2.21053H18.7895C19.3757 2.21053 19.938 2.44342 20.3526 2.85797C20.7671 3.27253 21 3.83478 21 4.42105C21 4.97368 20.8121 5.43789 20.5026 5.81368L17.2863 10.1132C16.8884 10.6768 16.2253 11.0526 15.4737 11.0526Z" fill="#C0C0C0"/>
</svg>
