<svg width="316" height="67" viewBox="0 0 316 67" fill="none" xmlns="http://www.w3.org/2000/svg">
<rect y="18" width="4" height="49" fill="#603DC3"/>
<rect x="12" y="6" width="4" height="61" fill="#603DC3"/>
<rect x="24" width="4" height="67" fill="#603DC3"/>
<rect x="36" y="6" width="4" height="61" fill="#603DC3"/>
<rect x="48" y="18" width="4" height="49" fill="#603DC3"/>
<rect x="60" y="6" width="4" height="61" fill="#603DC3"/>
<rect x="72" width="4" height="67" fill="#603DC3"/>
<rect x="84" y="6" width="4" height="61" fill="#603DC3"/>
<rect x="96" y="18" width="4" height="49" fill="#603DC3"/>
<rect x="108" y="6" width="4" height="61" fill="#603DC3"/>
<rect x="120" y="18" width="4" height="49" fill="#603DC3"/>
<rect x="132" y="6" width="4" height="61" fill="#603DC3"/>
<rect x="144" width="4" height="67" fill="#603DC3"/>
<rect x="156" y="6" width="4" height="61" fill="#603DC3"/>
<rect x="168" y="18" width="4" height="49" fill="#603DC3"/>
<rect x="180" y="6" width="4" height="61" fill="#603DC3"/>
<rect x="192" width="4" height="67" fill="#603DC3"/>
<rect x="204" y="6" width="4" height="61" fill="#603DC3"/>
<rect x="216" y="18" width="4" height="49" fill="#603DC3"/>
<rect x="228" y="6" width="4" height="61" fill="#603DC3"/>
<rect x="240" width="4" height="67" fill="#603DC3"/>
<rect x="252" y="6" width="4" height="61" fill="#603DC3"/>
<rect x="264" y="18" width="4" height="49" fill="#603DC3"/>
<rect x="276" y="6" width="4" height="61" fill="#603DC3"/>
<rect x="288" width="4" height="67" fill="#603DC3"/>
<rect x="300" y="6" width="4" height="61" fill="#603DC3"/>
<rect x="312" y="18" width="4" height="49" fill="#603DC3"/>
</svg>
